<svg xmlns="http://www.w3.org/2000/svg" width="760" height="381" viewBox="0 0 1236 620" font-family="Helvetica, Arial, sans-serif">
<rect x="0" y="0" width="1236" height="620" fill="#ffffff"/>
<defs><marker id="arrowgrey" viewBox="0 0 10 10" refX="9" refY="5" markerWidth="7" markerHeight="7" orient="auto-start-reverse"><path d="M 0 0 L 10 5 L 0 10 z" fill="#8a8f98"/></marker><marker id="arrowred" viewBox="0 0 10 10" refX="9" refY="5" markerWidth="7" markerHeight="7" orient="auto-start-reverse"><path d="M 0 0 L 10 5 L 0 10 z" fill="#c0392b"/></marker><marker id="arrowred-lg" viewBox="0 0 12 12" refX="10" refY="6" markerWidth="14" markerHeight="14" markerUnits="userSpaceOnUse" orient="auto-start-reverse"><path d="M 0 0 L 12 6 L 0 12 z" fill="#c0392b"/></marker><marker id="arrowred-rd" viewBox="-1 -1 15 15" refX="10.5" refY="6" markerWidth="15" markerHeight="15" markerUnits="userSpaceOnUse" orient="auto-start-reverse"><path d="M 1 1 L 12.5 6 L 1 11 Z" fill="#c0392b" stroke="#c0392b" stroke-width="1.6" stroke-linejoin="round"/></marker></defs>
<rect x="18.0" y="18.0" width="904.0" height="114.0" rx="10" fill="#eef1f5" stroke="#5b6b7f" stroke-width="1.6"/>
<circle cx="44.0" cy="42.0" r="11.0" fill="none" stroke="#5b6b7f" stroke-width="1.6"/>
<ellipse cx="44" cy="42" rx="5" ry="11" fill="none" stroke="#5b6b7f" stroke-width="1.2"/>
<line x1="33.0" y1="42.0" x2="55.0" y2="42.0" stroke="#5b6b7f" stroke-width="1.2"/>
<text x="32.0" y="72.0" font-family="Helvetica, Arial, sans-serif" font-size="15" font-weight="bold" fill="#5b6b7f" text-anchor="start">1)</text>
<text x="58.0" y="70.0" font-family="Helvetica, Arial, sans-serif" font-size="12" font-weight="bold" fill="#5b6b7f" text-anchor="start">External Actors —</text>
<text x="58.0" y="85.0" font-family="Helvetica, Arial, sans-serif" font-size="12" font-weight="bold" fill="#5b6b7f" text-anchor="start">Internet</text>
<text x="58.0" y="100.0" font-family="Helvetica, Arial, sans-serif" font-size="12" font-weight="bold" fill="#5b6b7f" text-anchor="start">(untrusted)</text>
<rect x="182.0" y="38.0" width="356.0" height="74.0" rx="7" fill="#f4faf6" stroke="#2e8b57" stroke-width="1.5"/>
<circle cx="198.0" cy="58.0" r="6.0" fill="none" stroke="#2e8b57" stroke-width="1.4"/>
<rect x="191.0" y="66.0" width="14.0" height="9.0" rx="2" fill="none" stroke="#2e8b57" stroke-width="1.4"/>
<text x="212.0" y="60.0" font-family="Helvetica, Arial, sans-serif" font-size="10.5" font-weight="bold" fill="#2e8b57" text-anchor="start">Shop User</text>
<text x="212.0" y="75.0" font-family="Helvetica, Arial, sans-serif" font-size="9" font-weight="normal" fill="#6b7280" text-anchor="start" font-style="italic">legitimate customer</text>
<text x="212.0" y="91.0" font-family="Helvetica, Arial, sans-serif" font-size="8.5" font-weight="normal" fill="#c0392b" text-anchor="start" font-style="italic">victim:</text>
<circle cx="246.0" cy="88.0" r="6.0" fill="#c0392b" stroke="#c0392b" stroke-width="1.1"/>
<text x="246.0" y="91.0" font-family="Helvetica, Arial, sans-serif" font-size="8" font-weight="bold" fill="#ffffff" text-anchor="middle">6</text>
<rect x="552.0" y="38.0" width="356.0" height="74.0" rx="7" fill="#fff7f7" stroke="#c0392b" stroke-width="1.6"/>
<circle cx="571.0" cy="61.0" r="9.0" fill="none" stroke="#c0392b" stroke-width="1.5"/>
<text x="571.0" y="65.0" font-family="Helvetica, Arial, sans-serif" font-size="12" font-weight="bold" fill="#c0392b" text-anchor="middle">!</text>
<text x="588.0" y="58.0" font-family="Helvetica, Arial, sans-serif" font-size="11" font-weight="bold" fill="#c0392b" text-anchor="start">Anonymous Internet Attacker</text>
<text x="566.0" y="88.0" font-family="Helvetica, Arial, sans-serif" font-size="9" font-weight="normal" fill="#6b7280" text-anchor="start" font-style="italic">incl. self-registered users (registration ≈ anonymous)</text>
<rect x="18.0" y="166.0" width="904.0" height="106.0" rx="10" fill="#eaf2fb" stroke="#2f6fb3" stroke-width="1.6"/>
<rect x="32.0" y="181.0" width="24.0" height="18.0" rx="2" fill="none" stroke="#2f6fb3" stroke-width="1.6"/>
<line x1="32.0" y1="187.0" x2="56.0" y2="187.0" stroke="#2f6fb3" stroke-width="1.2"/>
<circle cx="35.0" cy="184.0" r="0.9" fill="#2f6fb3" stroke="none" stroke-width="1.0"/>
<circle cx="38.2" cy="184.0" r="0.9" fill="#2f6fb3" stroke="none" stroke-width="1.0"/>
<circle cx="41.4" cy="184.0" r="0.9" fill="#2f6fb3" stroke="none" stroke-width="1.0"/>
<text x="32.0" y="220.0" font-family="Helvetica, Arial, sans-serif" font-size="15" font-weight="bold" fill="#2f6fb3" text-anchor="start">2)</text>
<text x="58.0" y="218.0" font-family="Helvetica, Arial, sans-serif" font-size="12" font-weight="bold" fill="#2f6fb3" text-anchor="start">Client Tier —</text>
<text x="58.0" y="233.0" font-family="Helvetica, Arial, sans-serif" font-size="12" font-weight="bold" fill="#2f6fb3" text-anchor="start">browser</text>
<rect x="356.2" y="186.0" width="377.5" height="66.0" rx="10" fill="#ffffff" stroke="#2f6fb3" stroke-width="1.5"/>
<text x="378.2" y="215.0" font-family="Helvetica, Arial, sans-serif" font-size="12" font-weight="bold" fill="#1f2733" text-anchor="start">C-02 · Frontend</text>
<text x="378.2" y="231.0" font-family="Helvetica, Arial, sans-serif" font-size="12" font-weight="bold" fill="#1f2733" text-anchor="start">SPA</text>
<line x1="522.3" y1="198.0" x2="522.3" y2="240.0" stroke="#e6e9ef" stroke-width="1.0"/>
<line x1="628.1" y1="198.0" x2="628.1" y2="240.0" stroke="#e6e9ef" stroke-width="1.0"/>
<text x="575.2" y="205.0" font-family="Helvetica, Arial, sans-serif" font-size="9" font-weight="normal" fill="#6b7280" text-anchor="middle">Findings</text>
<circle cx="549.2" cy="229.0" r="6.0" fill="#d64545" stroke="none" stroke-width="1.0"/>
<text x="561.2" y="233.0" font-family="Helvetica, Arial, sans-serif" font-size="11" font-weight="bold" fill="#1f2733" text-anchor="start">2</text>
<circle cx="582.2" cy="229.0" r="6.0" fill="#e8943a" stroke="none" stroke-width="1.0"/>
<text x="594.2" y="233.0" font-family="Helvetica, Arial, sans-serif" font-size="11" font-weight="bold" fill="#1f2733" text-anchor="start">3</text>
<text x="680.9" y="205.0" font-family="Helvetica, Arial, sans-serif" font-size="9" font-weight="normal" fill="#6b7280" text-anchor="middle">Attack scenarios</text>
<circle cx="680.9" cy="229.0" r="8.5" fill="#c0392b" stroke="#c0392b" stroke-width="1.3"/>
<text x="680.9" y="232.5" font-family="Helvetica, Arial, sans-serif" font-size="10.5" font-weight="bold" fill="#ffffff" text-anchor="middle">6</text>
<rect x="18.0" y="306.0" width="904.0" height="182.0" rx="10" fill="#e9f6ef" stroke="#2e8b57" stroke-width="1.6"/>
<rect x="32.0" y="323.0" width="24.0" height="6.0" rx="1" fill="none" stroke="#2e8b57" stroke-width="1.4"/>
<circle cx="52.0" cy="326.0" r="1.1" fill="#2e8b57" stroke="none" stroke-width="1.0"/>
<rect x="32.0" y="331.0" width="24.0" height="6.0" rx="1" fill="none" stroke="#2e8b57" stroke-width="1.4"/>
<circle cx="52.0" cy="334.0" r="1.1" fill="#2e8b57" stroke="none" stroke-width="1.0"/>
<text x="32.0" y="360.0" font-family="Helvetica, Arial, sans-serif" font-size="15" font-weight="bold" fill="#2e8b57" text-anchor="start">3)</text>
<text x="58.0" y="358.0" font-family="Helvetica, Arial, sans-serif" font-size="12" font-weight="bold" fill="#2e8b57" text-anchor="start">Application Tier —</text>
<text x="58.0" y="373.0" font-family="Helvetica, Arial, sans-serif" font-size="12" font-weight="bold" fill="#2e8b57" text-anchor="start">Node / Express</text>
<rect x="182.0" y="326.0" width="168.0" height="90.0" rx="9" fill="#ffffff" stroke="#2e8b57" stroke-width="1.5"/>
<rect x="183.5" y="369.0" width="165.0" height="45.5" rx="7" fill="#f5f7fb" stroke="none" stroke-width="1.0"/>
<circle cx="336.0" cy="339.0" r="7.0" fill="#fff" stroke="#c0392b" stroke-width="1.3"/>
<ellipse cx="336.0" cy="339.0" rx="3.2" ry="7.0" fill="none" stroke="#c0392b" stroke-width="0.9"/>
<line x1="329.0" y1="339.0" x2="343.0" y2="339.0" stroke="#c0392b" stroke-width="0.9"/>
<line x1="336.0" y1="332.0" x2="336.0" y2="346.0" stroke="#c0392b" stroke-width="0.9"/>
<text x="266.0" y="345.0" font-family="Helvetica, Arial, sans-serif" font-size="11" font-weight="bold" fill="#1f2733" text-anchor="middle">C-01 · Backend API</text>
<circle cx="240.0" cy="383.0" r="6.0" fill="#d64545" stroke="none" stroke-width="1.0"/>
<text x="252.0" y="387.0" font-family="Helvetica, Arial, sans-serif" font-size="11" font-weight="bold" fill="#1f2733" text-anchor="start">3</text>
<circle cx="273.0" cy="383.0" r="6.0" fill="#e8943a" stroke="none" stroke-width="1.0"/>
<text x="285.0" y="387.0" font-family="Helvetica, Arial, sans-serif" font-size="11" font-weight="bold" fill="#1f2733" text-anchor="start">6</text>
<circle cx="225.5" cy="400.0" r="8.5" fill="#c0392b" stroke="#c0392b" stroke-width="1.3"/>
<text x="225.5" y="403.5" font-family="Helvetica, Arial, sans-serif" font-size="10.5" font-weight="bold" fill="#ffffff" text-anchor="middle">1</text>
<circle cx="252.5" cy="400.0" r="8.5" fill="#c0392b" stroke="#c0392b" stroke-width="1.3"/>
<text x="252.5" y="403.5" font-family="Helvetica, Arial, sans-serif" font-size="10.5" font-weight="bold" fill="#ffffff" text-anchor="middle">3</text>
<circle cx="279.5" cy="400.0" r="8.5" fill="#c0392b" stroke="#c0392b" stroke-width="1.3"/>
<text x="279.5" y="403.5" font-family="Helvetica, Arial, sans-serif" font-size="10.5" font-weight="bold" fill="#ffffff" text-anchor="middle">4</text>
<circle cx="306.5" cy="400.0" r="8.5" fill="#c0392b" stroke="#c0392b" stroke-width="1.3"/>
<text x="306.5" y="403.5" font-family="Helvetica, Arial, sans-serif" font-size="10.5" font-weight="bold" fill="#ffffff" text-anchor="middle">5</text>
<rect x="368.0" y="326.0" width="168.0" height="90.0" rx="9" fill="#ffffff" stroke="#2e8b57" stroke-width="1.5"/>
<rect x="369.5" y="369.0" width="165.0" height="45.5" rx="7" fill="#f5f7fb" stroke="none" stroke-width="1.0"/>
<text x="452.0" y="345.0" font-family="Helvetica, Arial, sans-serif" font-size="11" font-weight="bold" fill="#1f2733" text-anchor="middle">C-06 · Authentication &amp;</text>
<text x="452.0" y="359.0" font-family="Helvetica, Arial, sans-serif" font-size="11" font-weight="bold" fill="#1f2733" text-anchor="middle">Session Surface</text>
<circle cx="426.0" cy="383.0" r="6.0" fill="#d64545" stroke="none" stroke-width="1.0"/>
<text x="438.0" y="387.0" font-family="Helvetica, Arial, sans-serif" font-size="11" font-weight="bold" fill="#1f2733" text-anchor="start">4</text>
<circle cx="459.0" cy="383.0" r="6.0" fill="#e8943a" stroke="none" stroke-width="1.0"/>
<text x="471.0" y="387.0" font-family="Helvetica, Arial, sans-serif" font-size="11" font-weight="bold" fill="#1f2733" text-anchor="start">3</text>
<circle cx="438.5" cy="400.0" r="8.5" fill="#c0392b" stroke="#c0392b" stroke-width="1.3"/>
<text x="438.5" y="403.5" font-family="Helvetica, Arial, sans-serif" font-size="10.5" font-weight="bold" fill="#ffffff" text-anchor="middle">1</text>
<circle cx="465.5" cy="400.0" r="8.5" fill="#c0392b" stroke="#c0392b" stroke-width="1.3"/>
<text x="465.5" y="403.5" font-family="Helvetica, Arial, sans-serif" font-size="10.5" font-weight="bold" fill="#ffffff" text-anchor="middle">2</text>
<rect x="554.0" y="326.0" width="168.0" height="90.0" rx="9" fill="#ffffff" stroke="#2e8b57" stroke-width="1.5"/>
<rect x="555.5" y="369.0" width="165.0" height="45.5" rx="7" fill="#f5f7fb" stroke="none" stroke-width="1.0"/>
<text x="638.0" y="345.0" font-family="Helvetica, Arial, sans-serif" font-size="11" font-weight="bold" fill="#1f2733" text-anchor="middle">C-03 · WebSocket Service</text>
<circle cx="628.5" cy="383.0" r="6.0" fill="#e8943a" stroke="none" stroke-width="1.0"/>
<text x="640.5" y="387.0" font-family="Helvetica, Arial, sans-serif" font-size="11" font-weight="bold" fill="#1f2733" text-anchor="start">2</text>
<circle cx="624.5" cy="400.0" r="8.5" fill="#c0392b" stroke="#c0392b" stroke-width="1.3"/>
<text x="624.5" y="403.5" font-family="Helvetica, Arial, sans-serif" font-size="10.5" font-weight="bold" fill="#ffffff" text-anchor="middle">3</text>
<circle cx="651.5" cy="400.0" r="8.5" fill="#c0392b" stroke="#c0392b" stroke-width="1.3"/>
<text x="651.5" y="403.5" font-family="Helvetica, Arial, sans-serif" font-size="10.5" font-weight="bold" fill="#ffffff" text-anchor="middle">4</text>
<rect x="740.0" y="326.0" width="168.0" height="90.0" rx="9" fill="#ffffff" stroke="#2e8b57" stroke-width="1.5"/>
<rect x="741.5" y="369.0" width="165.0" height="45.5" rx="7" fill="#f5f7fb" stroke="none" stroke-width="1.0"/>
<text x="824.0" y="345.0" font-family="Helvetica, Arial, sans-serif" font-size="11" font-weight="bold" fill="#1f2733" text-anchor="middle">C-07 · Web3 / Wallet /</text>
<text x="824.0" y="359.0" font-family="Helvetica, Arial, sans-serif" font-size="11" font-weight="bold" fill="#1f2733" text-anchor="middle">NFT Surface</text>
<circle cx="814.5" cy="383.0" r="6.0" fill="#e8943a" stroke="none" stroke-width="1.0"/>
<text x="826.5" y="387.0" font-family="Helvetica, Arial, sans-serif" font-size="11" font-weight="bold" fill="#1f2733" text-anchor="start">2</text>
<circle cx="824.0" cy="400.0" r="8.5" fill="#c0392b" stroke="#c0392b" stroke-width="1.3"/>
<text x="824.0" y="403.5" font-family="Helvetica, Arial, sans-serif" font-size="10.5" font-weight="bold" fill="#ffffff" text-anchor="middle">2</text>
<rect x="461.0" y="438.0" width="168.0" height="30.0" rx="9" fill="#ffffff" stroke="#b8bfca" stroke-width="1.5" stroke-dasharray="4 3"/>
<text x="545.0" y="456.7" font-family="Helvetica, Arial, sans-serif" font-size="10.5" font-weight="bold" fill="#6b7280" text-anchor="middle">C-05 · CI/CD Pipeline</text>
<rect x="18.0" y="522.0" width="904.0" height="80.0" rx="10" fill="#f2ecf9" stroke="#6f42a1" stroke-width="1.6"/>
<ellipse cx="44" cy="539" rx="11" ry="3.4" fill="none" stroke="#6f42a1" stroke-width="1.5"/>
<line x1="33.0" y1="539.0" x2="33.0" y2="553.0" stroke="#6f42a1" stroke-width="1.5"/>
<line x1="55.0" y1="539.0" x2="55.0" y2="553.0" stroke="#6f42a1" stroke-width="1.5"/>
<path d="M 33 553 A 11 3.4 0 0 0 55 553" fill="none" stroke="#6f42a1" stroke-width="1.5"/>
<path d="M 33 546 A 11 3.4 0 0 0 55 546" fill="none" stroke="#6f42a1" stroke-width="1.1"/>
<text x="32.0" y="576.0" font-family="Helvetica, Arial, sans-serif" font-size="15" font-weight="bold" fill="#6f42a1" text-anchor="start">4)</text>
<text x="58.0" y="574.0" font-family="Helvetica, Arial, sans-serif" font-size="12" font-weight="bold" fill="#6f42a1" text-anchor="start">Data Tier</text>
<rect x="461.0" y="552.0" width="168.0" height="30.0" rx="9" fill="#ffffff" stroke="#b8bfca" stroke-width="1.5" stroke-dasharray="4 3"/>
<text x="545.0" y="570.7" font-family="Helvetica, Arial, sans-serif" font-size="10.5" font-weight="bold" fill="#6b7280" text-anchor="middle">C-04 · Data Store</text>
<line x1="545.0" y1="133.0" x2="545.0" y2="165.0" stroke="#8a8f98" stroke-width="1.8" marker-end="url(#arrowgrey)"/>
<text x="557.0" y="152.5" font-family="Helvetica, Arial, sans-serif" font-size="10.5" font-weight="bold" fill="#6b7280" text-anchor="start">uses</text>
<line x1="545.0" y1="273.0" x2="545.0" y2="305.0" stroke="#8a8f98" stroke-width="1.8" marker-end="url(#arrowgrey)"/>
<text x="557.0" y="292.5" font-family="Helvetica, Arial, sans-serif" font-size="10.5" font-weight="bold" fill="#6b7280" text-anchor="start">API calls</text>
<line x1="545.0" y1="489.0" x2="545.0" y2="521.0" stroke="#8a8f98" stroke-width="1.8" marker-end="url(#arrowgrey)"/>
<text x="557.0" y="508.5" font-family="Helvetica, Arial, sans-serif" font-size="10.5" font-weight="bold" fill="#6b7280" text-anchor="start">reads / writes</text>
<path d="M 730.0 112.0 L 730.0 139.0 Q 730.0 148.0 739.0 148.0 L 939.0 148.0 Q 948.0 148.0 948.0 157.0 L 948.0 397.0" fill="none" stroke="#c0392b" stroke-width="3.4" stroke-linecap="round" stroke-linejoin="round"/>
<path d="M 948.0 397.0 L 910.0 397.0" fill="none" stroke="#c0392b" stroke-width="4.0" stroke-linecap="round" stroke-linejoin="round" marker-end="url(#arrowred-rd)"/>
<path d="M 930.0 148.0 L 930.0 210.0 Q 930.0 219.0 921.0 219.0 L 910.0 219.0" fill="none" stroke="#c0392b" stroke-width="2.6" stroke-linecap="round" stroke-linejoin="round" stroke-dasharray="7 5" marker-end="url(#arrowred-rd)"/>
<circle cx="730.0" cy="112.0" r="7.5" fill="#ffffff" stroke="#c0392b" stroke-width="2.2"/>
<circle cx="730.0" cy="112.0" r="3.0" fill="#c0392b" stroke="#c0392b" stroke-width="1"/>
<rect x="992.0" y="18.0" width="226.0" height="214.0" rx="8" fill="#ffffff" stroke="#cbd2da" stroke-width="1.2"/>
<rect x="992.0" y="18.0" width="226.0" height="26.0" rx="8" fill="#1f3a5f" stroke="none" stroke-width="1.0"/>
<rect x="992.0" y="34.0" width="226.0" height="10.0" rx="0" fill="#1f3a5f" stroke="none" stroke-width="1.0"/>
<text x="1105.0" y="35.0" font-family="Helvetica, Arial, sans-serif" font-size="11.5" font-weight="bold" fill="#ffffff" text-anchor="middle">Attack Scenarios — by actor</text>
<text x="1008.0" y="62.0" font-family="Helvetica, Arial, sans-serif" font-size="10.5" font-weight="bold" fill="#c0392b" text-anchor="start">Anonymous Internet Attacker</text>
<circle cx="1020.0" cy="82.5" r="8.5" fill="#c0392b" stroke="#c0392b" stroke-width="1.3"/>
<text x="1020.0" y="85.7" font-family="Helvetica, Arial, sans-serif" font-size="9.5" font-weight="bold" fill="#ffffff" text-anchor="middle">1</text>
<text x="1036.0" y="86.0" font-family="Helvetica, Arial, sans-serif" font-size="10.5" font-weight="normal" fill="#1f2733" text-anchor="start">Injection</text>
<circle cx="1020.0" cy="106.5" r="8.5" fill="#c0392b" stroke="#c0392b" stroke-width="1.3"/>
<text x="1020.0" y="109.7" font-family="Helvetica, Arial, sans-serif" font-size="9.5" font-weight="bold" fill="#ffffff" text-anchor="middle">2</text>
<text x="1036.0" y="110.0" font-family="Helvetica, Arial, sans-serif" font-size="10.5" font-weight="normal" fill="#1f2733" text-anchor="start">Auth Bypass</text>
<circle cx="1020.0" cy="130.5" r="8.5" fill="#c0392b" stroke="#c0392b" stroke-width="1.3"/>
<text x="1020.0" y="133.7" font-family="Helvetica, Arial, sans-serif" font-size="9.5" font-weight="bold" fill="#ffffff" text-anchor="middle">3</text>
<text x="1036.0" y="134.0" font-family="Helvetica, Arial, sans-serif" font-size="10.5" font-weight="normal" fill="#1f2733" text-anchor="start">Privilege Escalation</text>
<circle cx="1020.0" cy="154.5" r="8.5" fill="#c0392b" stroke="#c0392b" stroke-width="1.3"/>
<text x="1020.0" y="157.7" font-family="Helvetica, Arial, sans-serif" font-size="9.5" font-weight="bold" fill="#ffffff" text-anchor="middle">4</text>
<text x="1036.0" y="158.0" font-family="Helvetica, Arial, sans-serif" font-size="10.5" font-weight="normal" fill="#1f2733" text-anchor="start">Secret Exposure</text>
<circle cx="1020.0" cy="178.5" r="8.5" fill="#c0392b" stroke="#c0392b" stroke-width="1.3"/>
<text x="1020.0" y="181.7" font-family="Helvetica, Arial, sans-serif" font-size="9.5" font-weight="bold" fill="#ffffff" text-anchor="middle">5</text>
<text x="1036.0" y="182.0" font-family="Helvetica, Arial, sans-serif" font-size="10.5" font-weight="normal" fill="#1f2733" text-anchor="start">RCE</text>
<circle cx="1020.0" cy="202.5" r="8.5" fill="#c0392b" stroke="#c0392b" stroke-width="1.3"/>
<text x="1020.0" y="205.7" font-family="Helvetica, Arial, sans-serif" font-size="9.5" font-weight="bold" fill="#ffffff" text-anchor="middle">6</text>
<text x="1036.0" y="206.0" font-family="Helvetica, Arial, sans-serif" font-size="10.5" font-weight="normal" fill="#1f2733" text-anchor="start">XSS</text>
<rect x="992.0" y="250.0" width="226.0" height="94.0" rx="8" fill="#ffffff" stroke="#cbd2da" stroke-width="1.2"/>
<rect x="992.0" y="250.0" width="226.0" height="26.0" rx="8" fill="#1f3a5f" stroke="none" stroke-width="1.0"/>
<rect x="992.0" y="266.0" width="226.0" height="10.0" rx="0" fill="#1f3a5f" stroke="none" stroke-width="1.0"/>
<text x="1105.0" y="267.0" font-family="Helvetica, Arial, sans-serif" font-size="11.5" font-weight="bold" fill="#ffffff" text-anchor="middle">Severity</text>
<circle cx="1014.0" cy="290.5" r="7.0" fill="#d64545" stroke="none" stroke-width="1.0"/>
<text x="1030.0" y="294.0" font-family="Helvetica, Arial, sans-serif" font-size="11" font-weight="normal" fill="#1f2733" text-anchor="start">Critical</text>
<circle cx="1014.0" cy="314.5" r="7.0" fill="#e8943a" stroke="none" stroke-width="1.0"/>
<text x="1030.0" y="318.0" font-family="Helvetica, Arial, sans-serif" font-size="11" font-weight="normal" fill="#1f2733" text-anchor="start">High</text>
<rect x="992.0" y="362.0" width="226.0" height="190.0" rx="8" fill="#ffffff" stroke="#cbd2da" stroke-width="1.2"/>
<rect x="992.0" y="362.0" width="226.0" height="26.0" rx="8" fill="#1f3a5f" stroke="none" stroke-width="1.0"/>
<rect x="992.0" y="378.0" width="226.0" height="10.0" rx="0" fill="#1f3a5f" stroke="none" stroke-width="1.0"/>
<text x="1105.0" y="379.0" font-family="Helvetica, Arial, sans-serif" font-size="11.5" font-weight="bold" fill="#ffffff" text-anchor="middle">Diagram Legend</text>
<circle cx="1014.0" cy="402.5" r="7.0" fill="#fff" stroke="#c0392b" stroke-width="1.3"/>
<ellipse cx="1014.0" cy="402.5" rx="3.2" ry="7.0" fill="none" stroke="#c0392b" stroke-width="0.9"/>
<line x1="1007.0" y1="402.5" x2="1021.0" y2="402.5" stroke="#c0392b" stroke-width="0.9"/>
<line x1="1014.0" y1="395.5" x2="1014.0" y2="409.5" stroke="#c0392b" stroke-width="0.9"/>
<text x="1032.0" y="406.0" font-family="Helvetica, Arial, sans-serif" font-size="10" font-weight="normal" fill="#1f2733" text-anchor="start">internet-exposed entry point</text>
<line x1="1004.0" y1="426.5" x2="1026.0" y2="426.5" stroke="#c0392b" stroke-width="2.6" marker-end="url(#arrowred)"/>
<text x="1032.0" y="430.0" font-family="Helvetica, Arial, sans-serif" font-size="10" font-weight="normal" fill="#1f2733" text-anchor="start">direct attack</text>
<line x1="1004.0" y1="450.5" x2="1026.0" y2="450.5" stroke="#c0392b" stroke-width="2.2" stroke-dasharray="6 3" marker-end="url(#arrowred)"/>
<text x="1032.0" y="454.0" font-family="Helvetica, Arial, sans-serif" font-size="10" font-weight="normal" fill="#1f2733" text-anchor="start">indirect attack (via victim)</text>
<line x1="1004.0" y1="474.5" x2="1026.0" y2="474.5" stroke="#8a8f98" stroke-width="2" marker-end="url(#arrowgrey)"/>
<text x="1032.0" y="478.0" font-family="Helvetica, Arial, sans-serif" font-size="10" font-weight="normal" fill="#1f2733" text-anchor="start">legitimate request flow</text>
<circle cx="1015.0" cy="498.5" r="8.5" fill="#c0392b" stroke="#c0392b" stroke-width="1.3"/>
<text x="1015.0" y="501.7" font-family="Helvetica, Arial, sans-serif" font-size="9.5" font-weight="bold" fill="#ffffff" text-anchor="middle" font-style="italic">n</text>
<text x="1032.0" y="502.0" font-family="Helvetica, Arial, sans-serif" font-size="10" font-weight="normal" fill="#1f2733" text-anchor="start">attack scenario (see above)</text>
<rect x="1004.0" y="515.5" width="24.0" height="14.0" rx="4" fill="#ffffff" stroke="#b8bfca" stroke-width="1.5" stroke-dasharray="4 3"/>
<text x="1036.0" y="526.0" font-family="Helvetica, Arial, sans-serif" font-size="10" font-weight="normal" fill="#1f2733" text-anchor="start">out of scope (not analyzed)</text>
</svg>
